<?xml version="1.0" encoding="UTF-8" ?>
<svg version="1.1" width="448" height="16" xmlns="http://www.w3.org/2000/svg" shape-rendering="crispEdges">
<rect x="34" y="1" width="1" height="1" fill="#FFFFFF" />
<rect x="45" y="1" width="1" height="1" fill="#FFFFFF" />
<rect x="62" y="1" width="1" height="1" fill="#FFFFFF" />
<rect x="35" y="2" width="1" height="1" fill="#FFFFFF" />
<rect x="44" y="2" width="1" height="1" fill="#FFFFFF" />
<rect x="61" y="2" width="1" height="1" fill="#FFFFFF" />
<rect x="36" y="3" width="1" height="1" fill="#FFFFFF" />
<rect x="43" y="3" width="1" height="1" fill="#FFFFFF" />
<rect x="60" y="3" width="1" height="1" fill="#FFFFFF" />
<rect x="245" y="3" width="2" height="1" fill="#FFFFFF" />
<rect x="250" y="3" width="1" height="1" fill="#FFFFFF" />
<rect x="19" y="4" width="1" height="1" fill="#FFFFFF" />
<rect x="37" y="4" width="1" height="1" fill="#FFFFFF" />
<rect x="42" y="4" width="1" height="1" fill="#FFFFFF" />
<rect x="59" y="4" width="1" height="1" fill="#FFFFFF" />
<rect x="199" y="4" width="2" height="1" fill="#FFFFFF" />
<rect x="245" y="4" width="1" height="9" fill="#FFFFFF" />
<rect x="247" y="4" width="1" height="1" fill="#FFFFFF" />
<rect x="249" y="4" width="1" height="1" fill="#FFFFFF" />
<rect x="280" y="4" width="1" height="1" fill="#FFFFFF" />
<rect x="291" y="4" width="1" height="1" fill="#FFFFFF" />
<rect x="296" y="4" width="1" height="11" fill="#FFFFFF" />
<rect x="301" y="4" width="1" height="1" fill="#FFFFFF" />
<rect x="311" y="4" width="1" height="2" fill="#FFFFFF" />
<rect x="391" y="4" width="1" height="3" fill="#FFFFFF" />
<rect x="20" y="5" width="1" height="2" fill="#FFFFFF" />
<rect x="38" y="5" width="1" height="1" fill="#FFFFFF" />
<rect x="41" y="5" width="1" height="1" fill="#FFFFFF" />
<rect x="50" y="5" width="1" height="1" fill="#FFFFFF" />
<rect x="58" y="5" width="1" height="1" fill="#FFFFFF" />
<rect x="149" y="5" width="1" height="1" fill="#FFFFFF" />
<rect x="198" y="5" width="1" height="4" fill="#FFFFFF" />
<rect x="201" y="5" width="1" height="2" fill="#FFFFFF" />
<rect x="248" y="5" width="1" height="1" fill="#FFFFFF" />
<rect x="279" y="5" width="1" height="1" fill="#FFFFFF" />
<rect x="292" y="5" width="1" height="1" fill="#FFFFFF" />
<rect x="300" y="5" width="1" height="1" fill="#FFFFFF" />
<rect x="330" y="5" width="1" height="1" fill="#FFFFFF" />
<rect x="371" y="5" width="1" height="1" fill="#FFFFFF" />
<rect x="374" y="5" width="1" height="10" fill="#FFFFFF" />
<rect x="376" y="5" width="1" height="10" fill="#FFFFFF" />
<rect x="379" y="5" width="1" height="1" fill="#FFFFFF" />
<rect x="19" y="6" width="1" height="1" fill="#FFFFFF" />
<rect x="21" y="6" width="1" height="1" fill="#FFFFFF" />
<rect x="39" y="6" width="2" height="1" fill="#FFFFFF" />
<rect x="51" y="6" width="1" height="1" fill="#FFFFFF" />
<rect x="57" y="6" width="1" height="9" fill="#FFFFFF" />
<rect x="150" y="6" width="1" height="1" fill="#FFFFFF" />
<rect x="189" y="6" width="1" height="9" fill="#FFFFFF" />
<rect x="203" y="6" width="1" height="1" fill="#FFFFFF" />
<rect x="278" y="6" width="1" height="1" fill="#FFFFFF" />
<rect x="293" y="6" width="1" height="1" fill="#FFFFFF" />
<rect x="299" y="6" width="1" height="1" fill="#FFFFFF" />
<rect x="310" y="6" width="1" height="3" fill="#FFFFFF" />
<rect x="312" y="6" width="1" height="3" fill="#FFFFFF" />
<rect x="329" y="6" width="1" height="1" fill="#FFFFFF" />
<rect x="332" y="6" width="1" height="1" fill="#FFFFFF" />
<rect x="372" y="6" width="1" height="1" fill="#FFFFFF" />
<rect x="378" y="6" width="1" height="1" fill="#FFFFFF" />
<rect x="3" y="7" width="2" height="1" fill="#FFFFFF" />
<rect x="22" y="7" width="1" height="1" fill="#FFFFFF" />
<rect x="37" y="7" width="1" height="2" fill="#FFFFFF" />
<rect x="42" y="7" width="1" height="2" fill="#FFFFFF" />
<rect x="52" y="7" width="1" height="1" fill="#FFFFFF" />
<rect x="74" y="7" width="1" height="1" fill="#FFFFFF" />
<rect x="87" y="7" width="1" height="8" fill="#FFFFFF" />
<rect x="132" y="7" width="2" height="1" fill="#FFFFFF" />
<rect x="135" y="7" width="1" height="8" fill="#FFFFFF" />
<rect x="137" y="7" width="2" height="1" fill="#FFFFFF" />
<rect x="166" y="7" width="1" height="1" fill="#FFFFFF" />
<rect x="170" y="7" width="1" height="1" fill="#FFFFFF" />
<rect x="185" y="7" width="1" height="1" fill="#FFFFFF" />
<rect x="202" y="7" width="1" height="1" fill="#FFFFFF" />
<rect x="227" y="7" width="3" height="1" fill="#FFFFFF" />
<rect x="262" y="7" width="1" height="1" fill="#FFFFFF" />
<rect x="265" y="7" width="1" height="1" fill="#FFFFFF" />
<rect x="277" y="7" width="1" height="1" fill="#FFFFFF" />
<rect x="294" y="7" width="1" height="1" fill="#FFFFFF" />
<rect x="298" y="7" width="1" height="1" fill="#FFFFFF" />
<rect x="328" y="7" width="1" height="1" fill="#FFFFFF" />
<rect x="331" y="7" width="1" height="1" fill="#FFFFFF" />
<rect x="373" y="7" width="1" height="1" fill="#FFFFFF" />
<rect x="377" y="7" width="1" height="1" fill="#FFFFFF" />
<rect x="390" y="7" width="1" height="4" fill="#FFFFFF" />
<rect x="392" y="7" width="1" height="4" fill="#FFFFFF" />
<rect x="5" y="8" width="2" height="1" fill="#FFFFFF" />
<rect x="23" y="8" width="1" height="1" fill="#FFFFFF" />
<rect x="53" y="8" width="1" height="1" fill="#FFFFFF" />
<rect x="73" y="8" width="1" height="1" fill="#FFFFFF" />
<rect x="75" y="8" width="1" height="1" fill="#FFFFFF" />
<rect x="88" y="8" width="1" height="1" fill="#FFFFFF" />
<rect x="118" y="8" width="1" height="5" fill="#FFFFFF" />
<rect x="123" y="8" width="1" height="5" fill="#FFFFFF" />
<rect x="149" y="8" width="6" height="1" fill="#FFFFFF" />
<rect x="165" y="8" width="1" height="2" fill="#FFFFFF" />
<rect x="168" y="8" width="1" height="1" fill="#FFFFFF" />
<rect x="171" y="8" width="1" height="2" fill="#FFFFFF" />
<rect x="179" y="8" width="1" height="1" fill="#FFFFFF" />
<rect x="186" y="8" width="1" height="1" fill="#FFFFFF" />
<rect x="214" y="8" width="5" height="1" fill="#FFFFFF" />
<rect x="230" y="8" width="4" height="1" fill="#FFFFFF" />
<rect x="260" y="8" width="1" height="1" fill="#FFFFFF" />
<rect x="263" y="8" width="2" height="1" fill="#FFFFFF" />
<rect x="267" y="8" width="1" height="1" fill="#FFFFFF" />
<rect x="276" y="8" width="1" height="1" fill="#FFFFFF" />
<rect x="295" y="8" width="1" height="1" fill="#FFFFFF" />
<rect x="297" y="8" width="1" height="1" fill="#FFFFFF" />
<rect x="327" y="8" width="1" height="1" fill="#FFFFFF" />
<rect x="330" y="8" width="1" height="1" fill="#FFFFFF" />
<rect x="337" y="8" width="7" height="1" fill="#FFFFFF" />
<rect x="7" y="9" width="2" height="1" fill="#FFFFFF" />
<rect x="24" y="9" width="1" height="2" fill="#FFFFFF" />
<rect x="39" y="9" width="2" height="1" fill="#FFFFFF" />
<rect x="54" y="9" width="1" height="1" fill="#FFFFFF" />
<rect x="72" y="9" width="1" height="1" fill="#FFFFFF" />
<rect x="76" y="9" width="1" height="1" fill="#FFFFFF" />
<rect x="82" y="9" width="1" height="1" fill="#FFFFFF" />
<rect x="89" y="9" width="1" height="1" fill="#FFFFFF" />
<rect x="117" y="9" width="1" height="1" fill="#FFFFFF" />
<rect x="122" y="9" width="1" height="1" fill="#FFFFFF" />
<rect x="132" y="9" width="3" height="1" fill="#FFFFFF" />
<rect x="136" y="9" width="3" height="1" fill="#FFFFFF" />
<rect x="150" y="9" width="1" height="2" fill="#FFFFFF" />
<rect x="153" y="9" width="1" height="2" fill="#FFFFFF" />
<rect x="167" y="9" width="1" height="2" fill="#FFFFFF" />
<rect x="169" y="9" width="1" height="2" fill="#FFFFFF" />
<rect x="178" y="9" width="1" height="3" fill="#FFFFFF" />
<rect x="187" y="9" width="1" height="1" fill="#FFFFFF" />
<rect x="199" y="9" width="2" height="1" fill="#FFFFFF" />
<rect x="212" y="9" width="1" height="6" fill="#FFFFFF" />
<rect x="217" y="9" width="1" height="1" fill="#FFFFFF" />
<rect x="229" y="9" width="1" height="2" fill="#FFFFFF" />
<rect x="234" y="9" width="3" height="1" fill="#FFFFFF" />
<rect x="261" y="9" width="1" height="3" fill="#FFFFFF" />
<rect x="266" y="9" width="1" height="3" fill="#FFFFFF" />
<rect x="277" y="9" width="1" height="1" fill="#FFFFFF" />
<rect x="309" y="9" width="1" height="3" fill="#FFFFFF" />
<rect x="313" y="9" width="1" height="3" fill="#FFFFFF" />
<rect x="326" y="9" width="1" height="1" fill="#FFFFFF" />
<rect x="329" y="9" width="1" height="1" fill="#FFFFFF" />
<rect x="337" y="9" width="1" height="4" fill="#FFFFFF" />
<rect x="343" y="9" width="1" height="6" fill="#FFFFFF" />
<rect x="361" y="9" width="1" height="6" fill="#FFFFFF" />
<rect x="404" y="9" width="1" height="4" fill="#FFFFFF" />
<rect x="408" y="9" width="1" height="1" fill="#FFFFFF" />
<rect x="412" y="9" width="1" height="1" fill="#FFFFFF" />
<rect x="420" y="9" width="1" height="4" fill="#FFFFFF" />
<rect x="424" y="9" width="1" height="1" fill="#FFFFFF" />
<rect x="428" y="9" width="1" height="1" fill="#FFFFFF" />
<rect x="9" y="10" width="3" height="1" fill="#FFFFFF" />
<rect x="19" y="10" width="5" height="1" fill="#FFFFFF" />
<rect x="25" y="10" width="1" height="1" fill="#FFFFFF" />
<rect x="38" y="10" width="1" height="1" fill="#FFFFFF" />
<rect x="41" y="10" width="1" height="1" fill="#FFFFFF" />
<rect x="55" y="10" width="1" height="1" fill="#FFFFFF" />
<rect x="66" y="10" width="1" height="1" fill="#FFFFFF" />
<rect x="71" y="10" width="1" height="1" fill="#FFFFFF" />
<rect x="74" y="10" width="1" height="1" fill="#FFFFFF" />
<rect x="77" y="10" width="1" height="1" fill="#FFFFFF" />
<rect x="83" y="10" width="1" height="1" fill="#FFFFFF" />
<rect x="90" y="10" width="1" height="1" fill="#FFFFFF" />
<rect x="110" y="10" width="1" height="2" fill="#FFFFFF" />
<rect x="116" y="10" width="1" height="5" fill="#FFFFFF" />
<rect x="121" y="10" width="1" height="5" fill="#FFFFFF" />
<rect x="149" y="10" width="1" height="1" fill="#FFFFFF" />
<rect x="151" y="10" width="2" height="2" fill="#FFFFFF" />
<rect x="154" y="10" width="1" height="1" fill="#FFFFFF" />
<rect x="179" y="10" width="7" height="1" fill="#FFFFFF" />
<rect x="188" y="10" width="1" height="1" fill="#FFFFFF" />
<rect x="201" y="10" width="1" height="4" fill="#FFFFFF" />
<rect x="216" y="10" width="1" height="1" fill="#FFFFFF" />
<rect x="227" y="10" width="2" height="1" fill="#FFFFFF" />
<rect x="233" y="10" width="1" height="2" fill="#FFFFFF" />
<rect x="248" y="10" width="1" height="1" fill="#FFFFFF" />
<rect x="263" y="10" width="2" height="1" fill="#FFFFFF" />
<rect x="278" y="10" width="2" height="1" fill="#FFFFFF" />
<rect x="325" y="10" width="1" height="1" fill="#FFFFFF" />
<rect x="328" y="10" width="1" height="1" fill="#FFFFFF" />
<rect x="339" y="10" width="1" height="3" fill="#FFFFFF" />
<rect x="341" y="10" width="1" height="1" fill="#FFFFFF" />
<rect x="407" y="10" width="1" height="1" fill="#FFFFFF" />
<rect x="411" y="10" width="1" height="1" fill="#FFFFFF" />
<rect x="423" y="10" width="1" height="1" fill="#FFFFFF" />
<rect x="427" y="10" width="1" height="1" fill="#FFFFFF" />
<rect x="10" y="11" width="1" height="1" fill="#FFFFFF" />
<rect x="26" y="11" width="1" height="1" fill="#FFFFFF" />
<rect x="37" y="11" width="1" height="1" fill="#FFFFFF" />
<rect x="42" y="11" width="1" height="1" fill="#FFFFFF" />
<rect x="56" y="11" width="1" height="1" fill="#FFFFFF" />
<rect x="67" y="11" width="1" height="1" fill="#FFFFFF" />
<rect x="70" y="11" width="1" height="1" fill="#FFFFFF" />
<rect x="73" y="11" width="1" height="1" fill="#FFFFFF" />
<rect x="84" y="11" width="1" height="1" fill="#FFFFFF" />
<rect x="91" y="11" width="1" height="1" fill="#FFFFFF" />
<rect x="97" y="11" width="1" height="4" fill="#FFFFFF" />
<rect x="102" y="11" width="1" height="2" fill="#FFFFFF" />
<rect x="105" y="11" width="2" height="1" fill="#FFFFFF" />
<rect x="108" y="11" width="2" height="1" fill="#FFFFFF" />
<rect x="117" y="11" width="1" height="1" fill="#FFFFFF" />
<rect x="122" y="11" width="1" height="1" fill="#FFFFFF" />
<rect x="133" y="11" width="2" height="1" fill="#FFFFFF" />
<rect x="166" y="11" width="1" height="3" fill="#FFFFFF" />
<rect x="170" y="11" width="1" height="3" fill="#FFFFFF" />
<rect x="187" y="11" width="1" height="1" fill="#FFFFFF" />
<rect x="197" y="11" width="1" height="1" fill="#FFFFFF" />
<rect x="215" y="11" width="1" height="1" fill="#FFFFFF" />
<rect x="230" y="11" width="3" height="1" fill="#FFFFFF" />
<rect x="247" y="11" width="1" height="1" fill="#FFFFFF" />
<rect x="249" y="11" width="1" height="1" fill="#FFFFFF" />
<rect x="280" y="11" width="1" height="4" fill="#FFFFFF" />
<rect x="324" y="11" width="1" height="1" fill="#FFFFFF" />
<rect x="327" y="11" width="1" height="1" fill="#FFFFFF" />
<rect x="360" y="11" width="1" height="1" fill="#FFFFFF" />
<rect x="391" y="11" width="1" height="3" fill="#FFFFFF" />
<rect x="406" y="11" width="1" height="1" fill="#FFFFFF" />
<rect x="410" y="11" width="1" height="1" fill="#FFFFFF" />
<rect x="422" y="11" width="1" height="1" fill="#FFFFFF" />
<rect x="426" y="11" width="1" height="1" fill="#FFFFFF" />
<rect x="9" y="12" width="1" height="1" fill="#FFFFFF" />
<rect x="27" y="12" width="1" height="1" fill="#FFFFFF" />
<rect x="36" y="12" width="1" height="1" fill="#FFFFFF" />
<rect x="43" y="12" width="1" height="1" fill="#FFFFFF" />
<rect x="68" y="12" width="1" height="1" fill="#FFFFFF" />
<rect x="72" y="12" width="1" height="1" fill="#FFFFFF" />
<rect x="85" y="12" width="1" height="1" fill="#FFFFFF" />
<rect x="92" y="12" width="1" height="1" fill="#FFFFFF" />
<rect x="98" y="12" width="2" height="1" fill="#FFFFFF" />
<rect x="136" y="12" width="1" height="1" fill="#FFFFFF" />
<rect x="150" y="12" width="1" height="2" fill="#FFFFFF" />
<rect x="153" y="12" width="1" height="2" fill="#FFFFFF" />
<rect x="168" y="12" width="1" height="1" fill="#FFFFFF" />
<rect x="179" y="12" width="1" height="1" fill="#FFFFFF" />
<rect x="186" y="12" width="1" height="1" fill="#FFFFFF" />
<rect x="196" y="12" width="1" height="1" fill="#FFFFFF" />
<rect x="198" y="12" width="1" height="2" fill="#FFFFFF" />
<rect x="214" y="12" width="1" height="1" fill="#FFFFFF" />
<rect x="234" y="12" width="3" height="1" fill="#FFFFFF" />
<rect x="246" y="12" width="1" height="1" fill="#FFFFFF" />
<rect x="250" y="12" width="1" height="1" fill="#FFFFFF" />
<rect x="260" y="12" width="1" height="1" fill="#FFFFFF" />
<rect x="263" y="12" width="2" height="1" fill="#FFFFFF" />
<rect x="267" y="12" width="1" height="1" fill="#FFFFFF" />
<rect x="308" y="12" width="1" height="2" fill="#FFFFFF" />
<rect x="314" y="12" width="1" height="2" fill="#FFFFFF" />
<rect x="323" y="12" width="1" height="1" fill="#FFFFFF" />
<rect x="326" y="12" width="1" height="1" fill="#FFFFFF" />
<rect x="340" y="12" width="2" height="1" fill="#FFFFFF" />
<rect x="359" y="12" width="1" height="1" fill="#FFFFFF" />
<rect x="409" y="12" width="1" height="1" fill="#FFFFFF" />
<rect x="425" y="12" width="1" height="1" fill="#FFFFFF" />
<rect x="434" y="12" width="1" height="1" fill="#FFFFFF" />
<rect x="3" y="13" width="6" height="1" fill="#FFFFFF" />
<rect x="28" y="13" width="1" height="2" fill="#FFFFFF" />
<rect x="35" y="13" width="1" height="1" fill="#FFFFFF" />
<rect x="44" y="13" width="1" height="1" fill="#FFFFFF" />
<rect x="69" y="13" width="1" height="1" fill="#FFFFFF" />
<rect x="71" y="13" width="1" height="1" fill="#FFFFFF" />
<rect x="86" y="13" width="1" height="1" fill="#FFFFFF" />
<rect x="110" y="13" width="1" height="1" fill="#FFFFFF" />
<rect x="117" y="13" width="1" height="1" fill="#FFFFFF" />
<rect x="122" y="13" width="1" height="1" fill="#FFFFFF" />
<rect x="137" y="13" width="2" height="1" fill="#FFFFFF" />
<rect x="152" y="13" width="1" height="1" fill="#FFFFFF" />
<rect x="185" y="13" width="1" height="1" fill="#FFFFFF" />
<rect x="262" y="13" width="1" height="1" fill="#FFFFFF" />
<rect x="265" y="13" width="1" height="1" fill="#FFFFFF" />
<rect x="325" y="13" width="1" height="1" fill="#FFFFFF" />
<rect x="338" y="13" width="1" height="1" fill="#FFFFFF" />
<rect x="358" y="13" width="1" height="1" fill="#FFFFFF" />
<rect x="408" y="13" width="1" height="1" fill="#FFFFFF" />
<rect x="424" y="13" width="1" height="1" fill="#FFFFFF" />
<rect x="435" y="13" width="1" height="1" fill="#FFFFFF" />
<rect x="9" y="14" width="4" height="1" fill="#FFFFFF" />
<rect x="19" y="14" width="9" height="1" fill="#FFFFFF" />
<rect x="34" y="14" width="1" height="1" fill="#FFFFFF" />
<rect x="45" y="14" width="1" height="1" fill="#FFFFFF" />
<rect x="70" y="14" width="1" height="1" fill="#FFFFFF" />
<rect x="98" y="14" width="2" height="1" fill="#FFFFFF" />
<rect x="101" y="14" width="6" height="1" fill="#FFFFFF" />
<rect x="108" y="14" width="2" height="1" fill="#FFFFFF" />
<rect x="137" y="14" width="1" height="1" fill="#FFFFFF" />
<rect x="151" y="14" width="1" height="2" fill="#FFFFFF" />
<rect x="167" y="14" width="3" height="1" fill="#FFFFFF" />
<rect x="199" y="14" width="2" height="1" fill="#FFFFFF" />
<rect x="213" y="14" width="7" height="1" fill="#FFFFFF" />
<rect x="324" y="14" width="1" height="1" fill="#FFFFFF" />
<rect x="339" y="14" width="4" height="1" fill="#FFFFFF" />
<rect x="356" y="14" width="2" height="1" fill="#FFFFFF" />
<rect x="373" y="14" width="1" height="1" fill="#FFFFFF" />
<rect x="377" y="14" width="1" height="1" fill="#FFFFFF" />
<rect x="404" y="14" width="4" height="1" fill="#FFFFFF" />
<rect x="420" y="14" width="4" height="1" fill="#FFFFFF" />
<rect x="433" y="14" width="2" height="1" fill="#FFFFFF" />
</svg>